<svg xmlns="http://www.w3.org/2000/svg" xmlns:xlink="http://www.w3.org/1999/xlink" width="9" height="16" viewBox="0 0 9 16">
    <defs>
        <path id="a" d="M0 .033h8.863v10.634H0z"/>
    </defs>
    <g fill="none" fill-rule="evenodd" opacity=".897">
        <path fill="#1E1E1E" d="M4.889 4.444a2.222 2.222 0 1 0 0-4.444 2.222 2.222 0 0 0 0 4.444"/>
        <g transform="translate(0 4.444)">
            <mask id="b" fill="#fff">
                <use xlink:href="#a"/>
            </mask>
            <path fill="#1E1E1E" d="M8.546 6.242c-.039-.034-.642-.573-1.38-1.2.456-.442.735-1.02.735-1.65v-.848C7.9 1.163 6.567.033 4.938.033c-1.63 0-2.963 1.13-2.963 2.511v.848c0 .835.487 1.577 1.232 2.035.018.759-.253 2.282-2.517 3.126-.584.217-.849.795-.592 1.29.19.366.613.584 1.057.584.155 0 .313-.026.464-.083 2.717-1.012 3.57-2.736 3.808-4.008.41.347.788.675 1.054.909L6.067 9.54c-.096.534.336 1.034.967 1.115.059.008.118.012.176.012.56 0 1.052-.347 1.14-.831l.5-2.773a.886.886 0 0 0-.304-.821" mask="url(#b)"/>
        </g>
    </g>
</svg>
