<svg xmlns="http://www.w3.org/2000/svg" width="26" height="30" viewBox="0 0 26 30">
    <g fill="none" fill-rule="evenodd">
        <path fill="#E8E8E8" d="M13 0l12.99 7.5v15L13 30 .01 22.5v-15z"/>
        <path fill="#A79FB0" d="M11 13h4v-1.5a1.5 1.5 0 0 0-1.5-1.5h-1a1.5 1.5 0 0 0-1.5 1.5V13zm6 .268A2 2 0 0 1 18 15v3.36a2 2 0 0 1-1.608 1.962l-3 .6a2 2 0 0 1-.784 0l-3-.6A2 2 0 0 1 8 18.36V15a2 2 0 0 1 1-1.732V11.5A3.5 3.5 0 0 1 12.5 8h1a3.5 3.5 0 0 1 3.5 3.5v1.768zM13 15a1 1 0 0 0-1 1v1a1 1 0 0 0 2 0v-1a1 1 0 0 0-1-1z"/>
    </g>
</svg>
