<svg xmlns="http://www.w3.org/2000/svg" width="18" height="18" viewBox="0 0 18 18">
    <g fill="none" fill-rule="evenodd">
        <path fill="gray" d="M9 16.2l3 1.8 3-1.8v-3.6l3-1.8V7.2l-3-1.8V1.8L12 0 9 1.8 6 0 3 1.8V5.4l-3 1.8v3.6l3 1.8V16.2L6 18l3-1.8"/>
        <path fill="#EC8E56" d="M11.986 10.787v3.597L8.99 16.182v-3.597z"/>
        <path fill="#1D1C1A" d="M5.994 10.787L2.997 8.988V5.393L5.994 7.19z"/>
        <path fill="#F1AF5C" d="M0 10.787l2.997 1.798v3.597l2.996 1.798v-3.596l2.997 1.798v-3.597l-2.996-1.798L0 7.191z"/>
        <path fill="#FAC46F" d="M0 7.19l2.997 1.8 2.997 1.798L8.99 8.99v-.002L5.996 7.192l-.002-.001L3 5.394l-.003-.002z"/>
        <path fill="#DA834F" d="M5.993 17.98l2.997-1.798-2.997-1.798z"/>
        <path fill="#1D1C1A" d="M8.99 5.395l2.997-1.798 2.996 1.798-2.997 1.798z"/>
        <path fill="#B43C54" d="M5.994 10.788L2.997 8.99V5.395l2.997 1.798z"/>
        <path fill="#B11E4B" d="M11.986 0L8.99 1.798 5.994 0 2.997 1.798l2.996 1.798-2.996 1.798 2.997 1.799L8.99 5.395l5.993-3.597z"/>
        <path fill="#951A3E" d="M14.983 5.395l-1.097.658-1.9 1.139-.001.001L8.99 8.99l-2.995 1.798-.001.001V7.193l.002-.001L8.99 5.395l2.997-1.799 2.995-1.798z"/>
        <path fill="#B64E5B" d="M2.997 5.394V1.798l2.996 1.798z"/>
        <path fill="#472F75" d="M8.99 5.394l2.997-1.799 2.996 1.798-2.997 1.798z"/>
        <path fill="#402559" d="M11.986 7.191V17.98l2.997-1.798v-3.596l2.996-1.799V7.191L14.983 8.99V5.393z"/>
        <path fill="#FAC46F" d="M11.985 10.787L8.99 8.989v.001l-2.995 1.798 2.995 1.797z"/>
        <path fill="#50358A" d="M8.99 8.99l2.995 1.797v3.597L8.99 16.182l2.996 1.797V7.191L8.99 5.393z"/>
        <path fill="#452E6E" d="M14.983 8.99l2.996-1.799-2.996-1.798z"/>
    </g>
</svg>
