<svg xmlns="http://www.w3.org/2000/svg" xmlns:xlink="http://www.w3.org/1999/xlink" width="216" height="216" viewBox="0 0 216 216">
    <defs>
        <path id="a" d="M110.77 0C120.285 0 128 7.714 128 17.23V64H64V17.23C64 7.715 71.714 0 81.23 0h29.54z"/>
        <path id="b" d="M128 64v110.77c0 9.516-7.714 17.23-17.23 17.23H81.23C71.715 192 64 184.286 64 174.77V64h64z"/>
    </defs>
    <g fill="none" fill-rule="evenodd">
        <path fill="#230F3B" fill-rule="nonzero" d="M152 64h35.2c15.906 0 28.8 12.894 28.8 28.8v30.4c0 15.906-12.894 28.8-28.8 28.8H152v34.77c0 16.143-13.087 29.23-29.23 29.23H93.23C77.088 216 64 202.913 64 186.77V152H29.23C13.088 152 0 138.913 0 122.77V93.23C0 77.088 13.087 64 29.23 64H64V29.23C64 13.088 77.087 0 93.23 0h29.54C138.912 0 152 13.087 152 29.23V64z"/>
        <g transform="translate(12 12)">
            <use fill="#FFC400" xlink:href="#a"/>
            <use fill="#6035BD" xlink:href="#a"/>
        </g>
        <path fill="#471B6B" d="M187.2 140H140V76h47.2c9.278 0 16.8 7.522 16.8 16.8v30.4c0 9.278-7.522 16.8-16.8 16.8z"/>
        <path fill="#D81C4A" d="M29.23 140C19.715 140 12 132.286 12 122.77V93.23C12 83.715 19.714 76 29.23 76H76v64H29.23z"/>
        <g transform="translate(12 12)">
            <use fill="#6035BD" xlink:href="#b"/>
            <use fill="#FFC400" xlink:href="#b"/>
        </g>
        <rect width="40" height="40" x="88" y="88" fill="#FFF" opacity=".6" rx="20" transform="matrix(1 0 0 -1 0 216)"/>
        <path fill="#FFF" d="M190.188 110.075l-10.455 11.066a2.666 2.666 0 0 1-3.921 0c-1.083-1.146-1.083-3.004 0-4.15l8.495-8.991-8.495-8.99c-1.083-1.147-1.083-3.005 0-4.15a2.666 2.666 0 0 1 3.92 0l10.456 11.065c1.083 1.146 1.083 3.004 0 4.15zM25.812 110.075c-1.083-1.146-1.083-3.004 0-4.15L36.267 94.86a2.666 2.666 0 0 1 3.921 0c1.083 1.146 1.083 3.004 0 4.15L31.693 108l8.495 8.99c1.083 1.147 1.083 3.005 0 4.15a2.666 2.666 0 0 1-3.92 0l-10.456-11.065zM105.925 25.812c1.146-1.083 3.004-1.083 4.15 0l11.066 10.455a2.666 2.666 0 0 1 0 3.921c-1.146 1.083-3.004 1.083-4.15 0L108 31.693l-8.99 8.495c-1.147 1.083-3.005 1.083-4.15 0a2.666 2.666 0 0 1 0-3.92l11.065-10.456zM105.925 187.188L94.86 176.733a2.666 2.666 0 0 1 0-3.921c1.146-1.083 3.004-1.083 4.15 0l8.991 8.495 8.99-8.495c1.147-1.083 3.005-1.083 4.15 0a2.666 2.666 0 0 1 0 3.92l-11.065 10.456c-1.146 1.083-3.004 1.083-4.15 0z" opacity=".6"/>
    </g>
</svg>
