<svg xmlns="http://www.w3.org/2000/svg" xmlns:xlink="http://www.w3.org/1999/xlink" width="156" height="38" viewBox="0 0 156 38">
    <defs>
        <path id="a" d="M21.598 2.111a3.031 3.031 0 0 1 3.032 3.031v8.228H13.37V5.142a3.031 3.031 0 0 1 3.032-3.03h5.196z"/>
        <path id="b" d="M24.63 13.37v19.488a3.031 3.031 0 0 1-3.032 3.03h-5.196a3.031 3.031 0 0 1-3.032-3.03V13.37h11.26z"/>
    </defs>
    <g fill="none" fill-rule="evenodd">
        <g>
            <path fill="#230F3B" fill-rule="nonzero" d="M26.74 11.26h6.193A5.067 5.067 0 0 1 38 16.325v5.348a5.067 5.067 0 0 1-5.067 5.067h-6.192v6.117A5.142 5.142 0 0 1 21.598 38h-5.196a5.142 5.142 0 0 1-5.143-5.142V26.74H5.142A5.142 5.142 0 0 1 0 21.598v-5.196a5.142 5.142 0 0 1 5.142-5.143h6.117V5.142A5.142 5.142 0 0 1 16.402 0h5.196a5.142 5.142 0 0 1 5.143 5.142v6.117z"/>
            <use fill="#FFC400" xlink:href="#a"/>
            <use fill="#6035BD" xlink:href="#a"/>
            <path fill="#471B6B" d="M32.933 24.63H24.63V13.37h8.303a2.956 2.956 0 0 1 2.956 2.956v5.348a2.956 2.956 0 0 1-2.956 2.956z"/>
            <path fill="#D81C4A" d="M5.142 24.63a3.031 3.031 0 0 1-3.03-3.032v-5.196a3.031 3.031 0 0 1 3.03-3.032h8.228v11.26H5.142z"/>
            <use fill="#6035BD" xlink:href="#b"/>
            <use fill="#FFC400" xlink:href="#b"/>
            <rect width="7.037" height="7.037" x="15.481" y="15.481" fill="#FFF" opacity=".6" rx="3.519" transform="matrix(1 0 0 -1 0 38)"/>
            <path fill="#FFF" d="M32.931 19.365l-1.84 1.947a.469.469 0 0 1-.689 0 .538.538 0 0 1 0-.73L31.897 19l-1.495-1.582a.538.538 0 0 1 0-.73c.19-.201.5-.201.69 0l1.84 1.947c.19.202.19.528 0 .73zM5.069 19.365a.538.538 0 0 1 0-.73l1.84-1.947c.19-.201.498-.201.689 0 .19.202.19.529 0 .73L6.103 19l1.495 1.582c.19.201.19.528 0 .73a.469.469 0 0 1-.69 0l-1.84-1.947zM18.635 5.069a.538.538 0 0 1 .73 0l1.947 1.84c.201.19.201.498 0 .689a.538.538 0 0 1-.73 0L19 6.103l-1.582 1.495a.538.538 0 0 1-.73 0 .469.469 0 0 1 0-.69l1.947-1.84zM18.635 32.931l-1.947-1.84a.469.469 0 0 1 0-.689.538.538 0 0 1 .73 0L19 31.897l1.582-1.495a.538.538 0 0 1 .73 0c.201.19.201.5 0 .69l-1.947 1.84a.538.538 0 0 1-.73 0z" opacity=".6"/>
        </g>
        <g fill="#231F20">
            <path d="M45 25.857h3.537V11.494H45zM62.016 11.494v2.803h-3.86v11.56h-3.537v-11.56h-3.861v-2.803zM67.149 20.271h3.688l-1.834-6.06-1.854 6.06zm4.594 2.804h-5.5l-.884 2.782h-3.645l5.349-14.363h3.882l5.348 14.363h-3.645l-.905-2.782zM88.241 23.571h-3.407l-2.804-5.758-.432 8.044h-3.472l1.079-14.363h3.192l4.14 8.777 4.141-8.777h3.192l1.078 14.363h-3.472l-.431-8.044zM106.63 22.304c0 .561-.11 1.079-.334 1.553a3.646 3.646 0 0 1-.938 1.23 4.256 4.256 0 0 1-1.445.797c-.56.187-1.179.28-1.855.28a9.817 9.817 0 0 1-2.037-.226c-.712-.15-1.327-.348-1.844-.593l.237-.798c.59.259 1.171.457 1.747.593a7.99 7.99 0 0 0 1.855.205c1.121 0 2.012-.27 2.674-.809.661-.539.992-1.276.992-2.21 0-.503-.1-.935-.302-1.294a3.588 3.588 0 0 0-.787-.96 5.669 5.669 0 0 0-1.11-.744 54.491 54.491 0 0 0-1.295-.647 30.64 30.64 0 0 1-1.477-.766 5.627 5.627 0 0 1-1.165-.84 3.434 3.434 0 0 1-.755-1.047c-.18-.388-.27-.848-.27-1.38 0-.575.112-1.075.335-1.499.223-.424.52-.773.895-1.046a3.994 3.994 0 0 1 1.294-.615 5.66 5.66 0 0 1 1.531-.205 7.94 7.94 0 0 1 1.866.216 7.19 7.19 0 0 1 1.606.582l-.215.82a9.383 9.383 0 0 0-1.585-.583 6.325 6.325 0 0 0-1.629-.215c-.905 0-1.657.205-2.253.615-.597.41-.895 1.039-.895 1.887 0 .417.06.773.183 1.067.122.295.305.56.55.798.244.237.55.464.916.68a14.4 14.4 0 0 0 1.305.668c.46.216.939.457 1.435.723.496.266.948.575 1.358.927.41.353.748.759 1.014 1.219.266.46.399.999.399 1.617M113.705 12.362v13.544h-.95V12.362h-4.442v-.82h9.835v.82zM132.059 18.724c0-.906-.134-1.758-.4-2.556a6.417 6.417 0 0 0-1.154-2.103 5.517 5.517 0 0 0-1.832-1.434c-.72-.352-1.525-.528-2.416-.528-.892 0-1.697.176-2.415.528-.72.353-1.33.83-1.834 1.434a6.406 6.406 0 0 0-1.153 2.103c-.267.798-.4 1.65-.4 2.556 0 .906.133 1.758.4 2.556.265.798.65 1.499 1.153 2.103a5.512 5.512 0 0 0 1.834 1.434c.718.352 1.523.528 2.415.528.891 0 1.696-.176 2.416-.528a5.517 5.517 0 0 0 1.832-1.434 6.423 6.423 0 0 0 1.154-2.103c.266-.798.4-1.65.4-2.556m.948 0c0 .978-.15 1.916-.453 2.815a7.09 7.09 0 0 1-1.326 2.372 6.553 6.553 0 0 1-2.124 1.64c-.834.409-1.783.614-2.847.614s-2.013-.205-2.847-.615a6.556 6.556 0 0 1-2.124-1.639 7.1 7.1 0 0 1-1.327-2.372 8.786 8.786 0 0 1-.453-2.815c0-.978.152-1.916.453-2.815a7.106 7.106 0 0 1 1.327-2.372 6.556 6.556 0 0 1 2.124-1.639c.834-.41 1.783-.614 2.847-.614s2.013.204 2.847.614c.834.41 1.542.957 2.124 1.64a7.096 7.096 0 0 1 1.326 2.371c.302.9.453 1.837.453 2.815M143.36 15.424c0-.546-.12-1.013-.356-1.402a2.931 2.931 0 0 0-.928-.949 4.17 4.17 0 0 0-1.305-.539 6.565 6.565 0 0 0-1.51-.172h-2.156v6.47h1.337c.69 0 1.334-.076 1.93-.227a5.23 5.23 0 0 0 1.564-.658 3.222 3.222 0 0 0 1.046-1.067c.252-.424.378-.91.378-1.456m.949-.065c0 1.036-.346 1.895-1.036 2.578-.69.683-1.603 1.168-2.739 1.456l5.263 6.513h-1.122l-5.09-6.32a11.16 11.16 0 0 1-1.229.065h-1.25v6.255h-.95V11.542h3.17c.647 0 1.27.08 1.866.238a5.203 5.203 0 0 1 1.596.711c.467.317.837.712 1.11 1.186.273.475.41 1.035.41 1.682M148.406 25.906V11.542h7.376v.82h-6.427v5.758h6.168v.82h-6.168v6.146h6.492v.82z"/>
        </g>
    </g>
</svg>
