<svg xmlns="http://www.w3.org/2000/svg" width="30" height="30" viewBox="0 0 30 30">
    <g fill="none" fill-rule="evenodd">
        <circle cx="15" cy="15" r="15" fill="#F7D18A"/>
        <path fill="#F4C472" d="M4.132 25.339A14.936 14.936 0 0 0 11 27c8.284 0 15-6.716 15-15 0-4.008-1.572-7.648-4.132-10.339C26.698 4.153 30 9.191 30 15c0 8.284-6.716 15-15 15-4.277 0-8.135-1.79-10.868-4.661z"/>
        <circle cx="20" cy="13" r="1" fill="#000" fill-opacity=".85"/>
        <circle cx="10" cy="13" r="1" fill="#000" fill-opacity=".85"/>
        <path fill="#000" fill-opacity=".85" d="M7.027 17c.34 3.08 3.78 5.5 7.973 5.5 4.194 0 7.634-2.42 7.973-5.5.018.165.027.332.027.5 0 3.314-3.582 6-8 6s-8-2.686-8-6c0-.168.01-.335.027-.5z"/>
    </g>
</svg>
