<svg xmlns="http://www.w3.org/2000/svg" width="30" height="30" viewBox="0 0 30 30">
    <g fill="none" fill-rule="evenodd">
        <circle cx="15" cy="15" r="15" fill="#F7D18A"/>
        <path fill="#F4C472" d="M4.132 25.339A14.936 14.936 0 0 0 11 27c8.284 0 15-6.716 15-15 0-4.008-1.572-7.648-4.132-10.339C26.698 4.153 30 9.191 30 15c0 8.284-6.716 15-15 15-4.277 0-8.135-1.79-10.868-4.661z"/>
        <circle cx="20" cy="13" r="1" fill="#000" fill-opacity=".85"/>
        <circle cx="10" cy="13" r="1" fill="#000" fill-opacity=".85"/>
        <path fill="#000" fill-opacity=".85" d="M9 18h12.962A6.5 6.5 0 0 1 9 18z"/>
        <path fill="#EB9090" d="M17.775 23.616A6.79 6.79 0 0 1 15.5 24c-1.415 0-2.705-.418-3.682-1.107.642-.546 1.605-.893 2.682-.893 1.497 0 2.775.671 3.275 1.616z"/>
    </g>
</svg>
