<?xml version="1.0" encoding="utf-8"?>
<!-- Generator: Adobe Illustrator 21.0.0, SVG Export Plug-In . SVG Version: 6.00 Build 0)  -->
<svg version="1.1" id="Layer_1" xmlns="http://www.w3.org/2000/svg" xmlns:xlink="http://www.w3.org/1999/xlink" x="0px" y="0px"
	 viewBox="0 0 175.5 38" style="enable-background:new 0 0 175.5 38;" xml:space="preserve">
<style type="text/css">
	.st0{fill:#230F3B;}
	.st1{fill:#FFC400;}
	.st2{fill:#6035BD;}
	.st3{fill:#471B6B;}
	.st4{fill:#D81C4A;}
	.st5{opacity:0.6;fill:#FFFFFF;enable-background:new    ;}
	.st6{fill:#231F20;}
	.st7{enable-background:new    ;}
</style>
<g>
	<g>
		<path class="st0" d="M26.7,11.3h6.2c2.8,0,5.1,2.3,5.1,5.1v5.3c0,2.8-2.3,5.1-5.1,5.1l0,0h-6.2v6.1c0,2.8-2.3,5.1-5.1,5.1
			c0,0,0,0,0,0h-5.2c-2.8,0-5.1-2.3-5.1-5.1c0,0,0,0,0,0v-6.1H5.1c-2.8,0-5.1-2.3-5.1-5.1v-5.2c0-2.8,2.3-5.1,5.1-5.1c0,0,0,0,0,0
			h6.1V5.1c0-2.8,2.3-5.1,5.1-5.1c0,0,0,0,0,0h5.2c2.8,0,5.1,2.3,5.1,5.1c0,0,0,0,0,0L26.7,11.3L26.7,11.3z"/>
		<g>
			<path id="a" class="st1" d="M21.6,2.1c1.7,0,3,1.4,3,3c0,0,0,0,0,0v8.2H13.4V5.1c0-1.7,1.4-3,3-3c0,0,0,0,0,0L21.6,2.1L21.6,2.1z
				"/>
		</g>
		<g>
			<path id="a_1_" class="st2" d="M21.6,2.1c1.7,0,3,1.4,3,3c0,0,0,0,0,0v8.2H13.4V5.1c0-1.7,1.4-3,3-3c0,0,0,0,0,0L21.6,2.1
				L21.6,2.1z"/>
		</g>
		<path class="st3" d="M32.9,24.6h-8.3V13.4h8.3c1.6,0,3,1.3,3,3c0,0,0,0,0,0v5.3C35.9,23.3,34.6,24.6,32.9,24.6L32.9,24.6z"/>
		<path class="st4" d="M5.1,24.6c-1.7,0-3-1.4-3-3l0,0v-5.2c0-1.7,1.4-3,3-3l0,0h8.2v11.3C13.4,24.6,5.1,24.6,5.1,24.6z"/>
		<g>
			<path id="b" class="st2" d="M24.6,13.4v19.5c0,1.7-1.4,3-3,3h-5.2c-1.7,0-3-1.4-3-3V13.4C13.4,13.4,24.6,13.4,24.6,13.4z"/>
		</g>
		<g>
			<path id="b_1_" class="st1" d="M24.6,13.4v19.5c0,1.7-1.4,3-3,3h-5.2c-1.7,0-3-1.4-3-3V13.4C13.4,13.4,24.6,13.4,24.6,13.4z"/>
		</g>
		<path class="st5" d="M19,22.5L19,22.5c1.9,0,3.5-1.6,3.5-3.5l0,0c0-1.9-1.6-3.5-3.5-3.5l0,0c-1.9,0-3.5,1.6-3.5,3.5l0,0
			C15.5,20.9,17.1,22.5,19,22.5z"/>
		<path class="st5" d="M32.9,19.4l-1.8,1.9c-0.2,0.2-0.5,0.2-0.7,0c0,0,0,0,0,0c-0.2-0.2-0.2-0.5,0-0.7l1.5-1.6l-1.5-1.6
			c-0.2-0.2-0.2-0.5,0-0.7c0.2-0.2,0.5-0.2,0.7,0l1.8,1.9C33.1,18.8,33.1,19.2,32.9,19.4L32.9,19.4z M5.1,19.4
			c-0.2-0.2-0.2-0.5,0-0.7l1.8-1.9c0.2-0.2,0.5-0.2,0.7,0c0.2,0.2,0.2,0.5,0,0.7L6.1,19l1.5,1.6c0.2,0.2,0.2,0.5,0,0.7
			c-0.2,0.2-0.5,0.2-0.7,0c0,0,0,0,0,0L5.1,19.4L5.1,19.4z M18.6,5.1c0.2-0.2,0.5-0.2,0.7,0l1.9,1.8c0.2,0.2,0.2,0.5,0,0.7
			c-0.2,0.2-0.5,0.2-0.7,0L19,6.1l-1.6,1.5c-0.2,0.2-0.5,0.2-0.7,0c-0.2-0.2-0.2-0.5,0-0.7c0,0,0,0,0,0L18.6,5.1L18.6,5.1z
			 M18.6,32.9l-1.9-1.8c-0.2-0.2-0.2-0.5,0-0.7c0,0,0,0,0,0c0.2-0.2,0.5-0.2,0.7,0l1.6,1.5l1.6-1.5c0.2-0.2,0.5-0.2,0.7,0
			c0.2,0.2,0.2,0.5,0,0.7l-1.9,1.8C19.2,33.1,18.8,33.1,18.6,32.9L18.6,32.9z"/>
	</g>
	<g>
		<path class="st6" d="M45,25.9h3.5V11.5H45V25.9z M62,11.5v2.8h-3.9v11.6h-3.5V14.3h-3.9v-2.8L62,11.5z M67.1,20.3h3.7L69,14.2
			C69,14.2,67.1,20.3,67.1,20.3z M71.7,23.1h-5.5l-0.9,2.8h-3.6l5.3-14.4h3.9l5.3,14.4h-3.6C72.6,25.9,71.7,23.1,71.7,23.1z
			 M88.2,23.6h-3.4L82,17.8l-0.4,8h-3.5l1.1-14.4h3.2l4.1,8.8l4.1-8.8h3.2l1.1,14.4h-3.5l-0.4-8L88.2,23.6z"/>
	</g>
</g>
<g class="st7">
	<path class="st6" d="M107.9,22.1l5.5-10.5h0.8l1,14.4h-0.9l-0.8-12.7l-5.2,9.9h-0.9l-5.2-9.9l-0.8,12.7h-0.9l1-14.4h0.8L107.9,22.1
		z"/>
	<path class="st6" d="M129.7,25.9h-0.9l-1.5-3.9h-7.1l-1.5,3.9h-0.9l5.7-14.4h0.7L129.7,25.9z M120.4,21.2h6.5l-3.3-8.5L120.4,21.2z
		"/>
	<path class="st6" d="M140.6,15.4c0,1-0.3,1.9-1,2.6s-1.6,1.2-2.7,1.5l5.3,6.5H141l-5.1-6.3c-0.4,0-0.8,0.1-1.2,0.1h-1.3v6.3h-0.9
		V11.5h3.2c0.6,0,1.3,0.1,1.9,0.2c0.6,0.2,1.1,0.4,1.6,0.7c0.5,0.3,0.8,0.7,1.1,1.2C140.5,14.2,140.6,14.7,140.6,15.4z M139.6,15.4
		c0-0.5-0.1-1-0.4-1.4c-0.2-0.4-0.5-0.7-0.9-0.9c-0.4-0.2-0.8-0.4-1.3-0.5c-0.5-0.1-1-0.2-1.5-0.2h-2.2v6.5h1.3
		c0.7,0,1.3-0.1,1.9-0.2c0.6-0.2,1.1-0.4,1.6-0.7c0.4-0.3,0.8-0.6,1-1.1C139.5,16.5,139.6,16,139.6,15.4z"/>
	<path class="st6" d="M145.5,18.6l6.7-7h1.3l-6.8,7.1l7.4,7.3h-1.3l-7.3-7.2v7.2h-0.9V11.5h0.9V18.6z"/>
	<path class="st6" d="M156.4,25.9V11.5h7.4v0.8h-6.4v5.8h6.2v0.8h-6.2v6.1h6.5v0.8H156.4z"/>
	<path class="st6" d="M171.1,12.4v13.5h-0.9V12.4h-4.4v-0.8h9.8v0.8H171.1z"/>
</g>
</svg>
