<svg xmlns="http://www.w3.org/2000/svg" xmlns:xlink="http://www.w3.org/1999/xlink" width="33" height="33" viewBox="0 0 33 33">
    <defs>
        <path id="a" d="M16.817 0a2.616 2.616 0 0 1 2.616 2.616v7.1H9.717v-7.1A2.616 2.616 0 0 1 12.333 0h4.484z"/>
        <path id="b" d="M19.433 9.717v16.817a2.616 2.616 0 0 1-2.616 2.616h-4.484a2.616 2.616 0 0 1-2.616-2.616V9.717h9.716z"/>
    </defs>
    <g fill="none" fill-rule="evenodd">
        <path fill="#230F3B" fill-rule="nonzero" d="M23.222 9.778H28.6a4.4 4.4 0 0 1 4.4 4.4v4.644a4.4 4.4 0 0 1-4.4 4.4h-5.378v5.312c0 2.467-2 4.466-4.466 4.466h-4.512c-2.467 0-4.466-2-4.466-4.466v-5.312H4.466c-2.467 0-4.466-2-4.466-4.466v-4.512c0-2.467 2-4.466 4.466-4.466h5.312V4.466c0-2.467 2-4.466 4.466-4.466h4.512c2.467 0 4.466 2 4.466 4.466v5.312z"/>
        <g transform="translate(2.2 1.65)">
            <use fill="#FFC400" xlink:href="#a"/>
            <use fill="#6035BD" xlink:href="#a"/>
        </g>
        <path fill="#471B6B" d="M28.8 21.083h-7.167v-9.716H28.8a2.55 2.55 0 0 1 2.551 2.55v4.616a2.55 2.55 0 0 1-2.55 2.55z"/>
        <path fill="#D81C4A" d="M4.816 21.083A2.616 2.616 0 0 1 2.2 18.467v-4.484a2.616 2.616 0 0 1 2.616-2.616h7.1v9.716h-7.1z"/>
        <g transform="translate(2.2 1.65)">
            <use fill="#6035BD" xlink:href="#b"/>
            <use fill="#FFC400" xlink:href="#b"/>
        </g>
        <rect width="6.05" height="6.05" x="13.75" y="13.2" fill="#FFF" opacity=".6" rx="3.025" transform="matrix(1 0 0 -1 0 32.45)"/>
        <path fill="#FFF" d="M29.038 16.826l-1.437 1.739a.337.337 0 0 1-.54 0 .532.532 0 0 1 0-.652L28.23 16.5l-1.168-1.413a.532.532 0 0 1 0-.652c.149-.18.39-.18.539 0l1.437 1.739a.532.532 0 0 1 0 .652zM3.962 16.826a.532.532 0 0 1 0-.652l1.437-1.739c.15-.18.39-.18.54 0a.532.532 0 0 1 0 .652L4.77 16.5l1.168 1.413a.532.532 0 0 1 0 .652.337.337 0 0 1-.539 0l-1.437-1.739zM16.174 3.962a.532.532 0 0 1 .652 0l1.739 1.437c.18.15.18.39 0 .54a.532.532 0 0 1-.652 0L16.5 4.77l-1.413 1.168a.532.532 0 0 1-.652 0 .337.337 0 0 1 0-.539l1.739-1.437zM16.174 28.488l-1.739-1.437a.337.337 0 0 1 0-.54.532.532 0 0 1 .652 0L16.5 27.68l1.413-1.168a.532.532 0 0 1 .652 0c.18.149.18.39 0 .539l-1.739 1.437a.532.532 0 0 1-.652 0z" opacity=".6"/>
    </g>
</svg>
