<svg xmlns="http://www.w3.org/2000/svg" width="333" height="48" viewBox="0 0 333 48">
    <g fill="#230F3B" fill-rule="evenodd">
        <path d="M0 44.571h10.611V1.481H0zM51.048 1.48v8.412H39.466v34.68h-10.61V9.891H17.274V1.481zM66.446 27.814H77.51l-5.5-18.181-5.564 18.18zm13.782 8.411H63.729l-2.652 8.346H50.142l16.046-43.09h11.646L93.88 44.57H82.945l-2.717-8.346zM129.724 37.713H119.5l-8.412-17.275-1.294 24.133H99.378l3.236-43.09h9.576l12.422 26.332 12.423-26.332h9.575l3.235 43.09H139.43l-1.294-24.133zM184.893 33.912c0 1.683-.335 3.236-1.004 4.66a10.938 10.938 0 0 1-2.814 3.687c-1.207 1.035-2.652 1.834-4.335 2.394-1.682.56-3.537.84-5.565.84-1.94 0-3.979-.225-6.113-.679-2.136-.452-3.98-1.045-5.532-1.779l.712-2.394a30.65 30.65 0 0 0 5.24 1.78c1.725.41 3.58.614 5.565.614 3.364 0 6.038-.808 8.022-2.426 1.984-1.617 2.976-3.828 2.976-6.632 0-1.509-.301-2.803-.905-3.882a10.764 10.764 0 0 0-2.36-2.88 17.006 17.006 0 0 0-3.334-2.232 163.474 163.474 0 0 0-3.882-1.94 91.92 91.92 0 0 1-4.432-2.297c-1.358-.754-2.523-1.595-3.494-2.523a10.303 10.303 0 0 1-2.264-3.14c-.54-1.163-.808-2.544-.808-4.14 0-1.724.332-3.224 1.001-4.496a9.022 9.022 0 0 1 2.685-3.138c1.122-.819 2.415-1.434 3.883-1.844a16.978 16.978 0 0 1 4.593-.615c1.942 0 3.807.216 5.597.648 1.79.432 3.396 1.013 4.82 1.745l-.646 2.46a28.15 28.15 0 0 0-4.756-1.748 18.975 18.975 0 0 0-4.885-.646c-2.717 0-4.972.614-6.761 1.845-1.79 1.228-2.685 3.116-2.685 5.66 0 1.252.183 2.319.55 3.203a7.086 7.086 0 0 0 1.65 2.393c.732.712 1.65 1.392 2.75 2.039 1.1.647 2.404 1.316 3.914 2.006 1.38.647 2.815 1.37 4.303 2.168a22.66 22.66 0 0 1 4.076 2.781 14.153 14.153 0 0 1 3.041 3.656c.797 1.38 1.197 2.998 1.197 4.852M206.115 4.085v40.632h-2.847V4.085h-13.329V1.627h29.504v2.458zM261.176 23.172c0-2.717-.4-5.273-1.198-7.667-.798-2.394-1.951-4.497-3.462-6.309a16.551 16.551 0 0 0-5.498-4.302c-2.158-1.056-4.573-1.585-7.248-1.585-2.674 0-5.09.529-7.245 1.585a16.537 16.537 0 0 0-5.5 4.302c-1.51 1.812-2.664 3.915-3.46 6.309-.8 2.394-1.2 4.95-1.2 7.667 0 2.717.4 5.273 1.2 7.668.796 2.393 1.95 4.496 3.46 6.308a16.537 16.537 0 0 0 5.5 4.302c2.156 1.057 4.57 1.584 7.245 1.584s5.09-.527 7.248-1.584a16.551 16.551 0 0 0 5.498-4.302c1.51-1.812 2.664-3.915 3.462-6.308.798-2.395 1.198-4.95 1.198-7.668m2.846 0c0 2.933-.453 5.748-1.359 8.444-.905 2.696-2.231 5.068-3.979 7.117-1.746 2.049-3.87 3.687-6.373 4.917-2.502 1.229-5.349 1.844-8.54 1.844-3.193 0-6.04-.615-8.54-1.844-2.502-1.23-4.627-2.868-6.373-4.917-1.748-2.049-3.074-4.421-3.98-7.117a26.36 26.36 0 0 1-1.359-8.444c0-2.933.454-5.748 1.359-8.444.906-2.695 2.232-5.067 3.98-7.117 1.746-2.047 3.87-3.688 6.373-4.917 2.5-1.229 5.347-1.843 8.54-1.843 3.191 0 6.038.614 8.54 1.843 2.502 1.23 4.627 2.87 6.373 4.917 1.748 2.05 3.074 4.422 3.98 7.117a26.337 26.337 0 0 1 1.358 8.444M295.079 13.273c0-1.639-.357-3.041-1.068-4.206a8.793 8.793 0 0 0-2.782-2.847c-1.143-.733-2.448-1.271-3.915-1.617a19.696 19.696 0 0 0-4.529-.518h-6.469v19.41h4.01c2.071 0 4-.226 5.792-.679 1.788-.453 3.352-1.11 4.69-1.974 1.337-.861 2.383-1.93 3.138-3.201.755-1.273 1.133-2.729 1.133-4.368m2.847-.195c0 3.107-1.036 5.684-3.107 7.732-2.07 2.05-4.81 3.505-8.216 4.368l15.787 19.54h-3.365L283.756 25.76c-1.165.13-2.395.194-3.688.194h-3.752v18.764h-2.847V1.628h9.51c1.941 0 3.806.236 5.597.711 1.79.475 3.386 1.186 4.787 2.135 1.402.95 2.513 2.134 3.332 3.558.82 1.423 1.23 3.105 1.23 5.046M310.218 44.717V1.627h22.128v2.458h-19.28V21.36h18.503v2.46h-18.503v18.439h19.474v2.458z"/>
    </g>
</svg>
